<?xml version="1.0" encoding="UTF-8" standalone="no"?>
<!-- <svg width="296" height="541" viewBox="0 0 296 541" fill="none" xmlns="http://www.w3.org/2000/svg">
<g filter="url(#filter0_d_602_7)">
<path d="M292 0.0969136L211.989 0C134.399 0 84.277 51.4587 84.277 131.191V191.638H4V301.024H84.277L84.1802 533H196.5L196.597 301.024H288.709L288.636 191.662H196.597V140.373C196.597 115.709 202.43 103.232 234.497 103.232L291.758 103.208L292 0.0969136Z" fill="black"/>
</g>
<defs>
<filter id="filter0_d_602_7" x="0" y="0" width="296" height="541" filterUnits="userSpaceOnUse" color-interpolation-filters="sRGB">
<feFlood flood-opacity="0" result="BackgroundImageFix"/>
<feColorMatrix in="SourceAlpha" type="matrix" values="0 0 0 0 0 0 0 0 0 0 0 0 0 0 0 0 0 0 127 0" result="hardAlpha"/>
<feOffset dy="4"/>
<feGaussianBlur stdDeviation="2"/>
<feComposite in2="hardAlpha" operator="out"/>
<feColorMatrix type="matrix" values="0 0 0 0 0 0 0 0 0 0 0 0 0 0 0 0 0 0 0.25 0"/>
<feBlend mode="normal" in2="BackgroundImageFix" result="effect1_dropShadow_602_7"/>
<feBlend mode="normal" in="SourceGraphic" in2="effect1_dropShadow_602_7" result="shape"/>
</filter>
</defs>
</svg> -->

<svg
   width="36"
   height="36"
   viewBox="0 0 24 24"
   fill="none"
   stroke="currentColor"
   stroke-width="2"
   stroke-linecap="round"
   stroke-linejoin="round"
   class="lucide lucide-facebook-icon lucide-facebook"
   version="1.1"
   id="svg826"
   sodipodi:docname="facebook_template.svg"
   inkscape:version="1.1 (c4e8f9e, 2021-05-24)"
   xmlns:inkscape="http://www.inkscape.org/namespaces/inkscape"
   xmlns:sodipodi="http://sodipodi.sourceforge.net/DTD/sodipodi-0.dtd"
   xmlns="http://www.w3.org/2000/svg"
   xmlns:svg="http://www.w3.org/2000/svg">
  <defs
     id="defs830" />
  <sodipodi:namedview
     id="namedview828"
     pagecolor="#ffffff"
     bordercolor="#666666"
     borderopacity="1.0"
     inkscape:pageshadow="2"
     inkscape:pageopacity="0.0"
     inkscape:pagecheckerboard="0"
     showgrid="false"
     showguides="true"
     inkscape:guide-bbox="true"
     inkscape:zoom="8.6826561"
     inkscape:cx="12.265832"
     inkscape:cy="25.337869"
     inkscape:window-width="1277"
     inkscape:window-height="701"
     inkscape:window-x="246"
     inkscape:window-y="85"
     inkscape:window-maximized="0"
     inkscape:current-layer="svg826" />
  <g
     id="g1089"
     transform="matrix(0.05347116,0,0,0.05347116,10.262908,9.6898665)">
    <path
       id="path3"
       d="m 254.7827,42.410713 c 0,122.702227 -99.46934,222.168887 -222.17156,222.168887 -122.702224,0 -222.17245,-99.46666 -222.17245,-222.168887 0,-122.702224 99.470226,-222.168893 222.17245,-222.168893 122.70222,0 222.17156,99.466669 222.17156,222.168893"
       style="fill:#231f20;fill-opacity:1;fill-rule:evenodd;stroke:none;stroke-width:0.177778" />
    <path
       id="path4"
       d="M 1.9854482,274.2925 H 76.429529 V 102.5611 H 131.41665 L 142.41483,33.192097 H 76.429529 V -19.25697 c 0,-19.456893 18.61134,-30.455067 36.377031,-30.455067 h 32.1464 V -107.2373 l -57.525258,-2.5381 C 32.439335,-113.15792 1.9854482,-70.01463 1.9854482,-18.411303 v 51.6034 H -60.616079 V 102.5611 H 1.9854482 v 171.7314"
       style="fill:#ffffff;fill-opacity:1;fill-rule:evenodd;stroke:none;stroke-width:0.124175" />
  </g>
</svg>
