<?xml version="1.0" encoding="UTF-8" standalone="no"?>
<!-- <svg width="296" height="541" viewBox="0 0 296 541" fill="none" xmlns="http://www.w3.org/2000/svg">
<g filter="url(#filter0_d_602_7)">
<path d="M292 0.0969136L211.989 0C134.399 0 84.277 51.4587 84.277 131.191V191.638H4V301.024H84.277L84.1802 533H196.5L196.597 301.024H288.709L288.636 191.662H196.597V140.373C196.597 115.709 202.43 103.232 234.497 103.232L291.758 103.208L292 0.0969136Z" fill="black"/>
</g>
<defs>
<filter id="filter0_d_602_7" x="0" y="0" width="296" height="541" filterUnits="userSpaceOnUse" color-interpolation-filters="sRGB">
<feFlood flood-opacity="0" result="BackgroundImageFix"/>
<feColorMatrix in="SourceAlpha" type="matrix" values="0 0 0 0 0 0 0 0 0 0 0 0 0 0 0 0 0 0 127 0" result="hardAlpha"/>
<feOffset dy="4"/>
<feGaussianBlur stdDeviation="2"/>
<feComposite in2="hardAlpha" operator="out"/>
<feColorMatrix type="matrix" values="0 0 0 0 0 0 0 0 0 0 0 0 0 0 0 0 0 0 0.25 0"/>
<feBlend mode="normal" in2="BackgroundImageFix" result="effect1_dropShadow_602_7"/>
<feBlend mode="normal" in="SourceGraphic" in2="effect1_dropShadow_602_7" result="shape"/>
</filter>
</defs>
</svg> -->

<svg
   width="36"
   height="36"
   viewBox="0 0 24 24"
   fill="none"
   stroke="currentColor"
   stroke-width="2"
   stroke-linecap="round"
   stroke-linejoin="round"
   class="lucide lucide-facebook-icon lucide-facebook"
   version="1.1"
   id="svg826"
   sodipodi:docname="facebook_template.svg"
   inkscape:version="1.1 (c4e8f9e, 2021-05-24)"
   xmlns:inkscape="http://www.inkscape.org/namespaces/inkscape"
   xmlns:sodipodi="http://sodipodi.sourceforge.net/DTD/sodipodi-0.dtd"
   xmlns="http://www.w3.org/2000/svg"
   xmlns:svg="http://www.w3.org/2000/svg">
  <defs
     id="defs830" />
  <sodipodi:namedview
     id="namedview828"
     pagecolor="#ffffff"
     bordercolor="#666666"
     borderopacity="1.0"
     inkscape:pageshadow="2"
     inkscape:pageopacity="0.0"
     inkscape:pagecheckerboard="0"
     showgrid="false"
     showguides="true"
     inkscape:guide-bbox="true"
     inkscape:zoom="1.8194444"
     inkscape:cx="18.687023"
     inkscape:cy="31.328244"
     inkscape:window-width="1440"
     inkscape:window-height="847"
     inkscape:window-x="0"
     inkscape:window-y="25"
     inkscape:window-maximized="1"
     inkscape:current-layer="svg826" />
  <rect
     style="fill:none;stroke:#000000;stroke-width:0.620247;stroke-linecap:round;stroke-miterlimit:4;stroke-dasharray:none"
     id="rect1649"
     width="23.379753"
     height="23.379738"
     x="0.31012344"
     y="0.31013107"
     ry="2.9650095"
     rx="3.5069623" />
  <path
     style="fill:#000000;stroke-width:0.230215"
     d="m 12.811625,23.368923 c 0.162442,-0.303527 0.162442,-8.114424 0,-8.417951 -0.108024,-0.201844 -0.25322,-0.222647 -1.553946,-0.222647 H 9.82289 v -1.780818 -1.78082 l 1.525169,-0.03211 1.525168,-0.03212 0.06532,-2.0143738 c 0.06855,-2.113959 0.153565,-2.507145 0.74662,-3.453212 0.538953,-0.859755 1.524815,-1.469811 2.792894,-1.728255 0.777919,-0.158545 3.546481,-0.08726 3.729774,0.09602 0.05332,0.05332 0.0824,0.766136 0.0646,1.584014 l -0.03236,1.487052 -1.266178,0.06902 c -2.168578,0.118209 -2.302141,0.260829 -2.302141,2.458258 v 1.5014708 l 1.68867,0.05755 c 0.928773,0.03166 1.715385,0.08446 1.74803,0.117349 0.05529,0.0557 -0.169095,2.045225 -0.340526,3.019318 l -0.07596,0.431652 h -1.479136 c -1.438499,0 -1.480871,0.0071 -1.542197,0.258991 -0.03468,0.142445 -0.04862,2.123725 -0.03097,4.402845 l 0.03209,4.143855 c 0,0 -3.860137,-0.165088 -3.860136,-0.165157 z"
     id="path1858"
     sodipodi:nodetypes="csscccccssssscssccsscsssccc" />
</svg>
