<?xml version="1.0" encoding="UTF-8" standalone="no"?>
<!-- <svg width="296" height="541" viewBox="0 0 296 541" fill="none" xmlns="http://www.w3.org/2000/svg">
<g filter="url(#filter0_d_602_7)">
<path d="M292 0.0969136L211.989 0C134.399 0 84.277 51.4587 84.277 131.191V191.638H4V301.024H84.277L84.1802 533H196.5L196.597 301.024H288.709L288.636 191.662H196.597V140.373C196.597 115.709 202.43 103.232 234.497 103.232L291.758 103.208L292 0.0969136Z" fill="black"/>
</g>
<defs>
<filter id="filter0_d_602_7" x="0" y="0" width="296" height="541" filterUnits="userSpaceOnUse" color-interpolation-filters="sRGB">
<feFlood flood-opacity="0" result="BackgroundImageFix"/>
<feColorMatrix in="SourceAlpha" type="matrix" values="0 0 0 0 0 0 0 0 0 0 0 0 0 0 0 0 0 0 127 0" result="hardAlpha"/>
<feOffset dy="4"/>
<feGaussianBlur stdDeviation="2"/>
<feComposite in2="hardAlpha" operator="out"/>
<feColorMatrix type="matrix" values="0 0 0 0 0 0 0 0 0 0 0 0 0 0 0 0 0 0 0.25 0"/>
<feBlend mode="normal" in2="BackgroundImageFix" result="effect1_dropShadow_602_7"/>
<feBlend mode="normal" in="SourceGraphic" in2="effect1_dropShadow_602_7" result="shape"/>
</filter>
</defs>
</svg> -->

<svg
   width="36"
   height="36"
   viewBox="0 0 24 24"
   fill="none"
   stroke="currentColor"
   stroke-width="2"
   stroke-linecap="round"
   stroke-linejoin="round"
   class="lucide lucide-facebook-icon lucide-facebook"
   version="1.1"
   id="svg826"
   sodipodi:docname="Instagram_template.svg"
   inkscape:version="1.1 (c4e8f9e, 2021-05-24)"
   xmlns:inkscape="http://www.inkscape.org/namespaces/inkscape"
   xmlns:sodipodi="http://sodipodi.sourceforge.net/DTD/sodipodi-0.dtd"
   xmlns="http://www.w3.org/2000/svg"
   xmlns:svg="http://www.w3.org/2000/svg">
  <defs
     id="defs830" />
  <sodipodi:namedview
     id="namedview828"
     pagecolor="#ffffff"
     bordercolor="#666666"
     borderopacity="1.0"
     inkscape:pageshadow="2"
     inkscape:pageopacity="0.0"
     inkscape:pagecheckerboard="0"
     showgrid="false"
     showguides="true"
     inkscape:guide-bbox="true"
     inkscape:zoom="7.2777778"
     inkscape:cx="-2.7480916"
     inkscape:cy="15.664122"
     inkscape:window-width="1440"
     inkscape:window-height="847"
     inkscape:window-x="0"
     inkscape:window-y="25"
     inkscape:window-maximized="1"
     inkscape:current-layer="svg826" />
  <rect
     style="fill:none;stroke:#000000;stroke-width:0.620247;stroke-linecap:round;stroke-miterlimit:4;stroke-dasharray:none"
     id="rect1649"
     width="23.379753"
     height="23.379738"
     x="0.31012344"
     y="0.31013107"
     ry="2.9650095"
     rx="3.5069623" />
  <path
     style="fill:#000000;stroke-width:0.0618515"
     d="M 7.3227256,20.881687 C 6.757293,20.800617 6.365875,20.676221 5.807363,20.400089 4.3853732,19.697048 3.3920772,18.350825 3.1272793,16.767752 c -0.033251,-0.198813 -0.041381,-1.14334 -0.041381,-4.808956 0,-4.2700652 0.00351,-4.5773583 0.05535,-4.8089556 C 3.2305614,6.7505868 3.3240189,6.4098463 3.3528731,6.3782416 3.3676262,6.3620751 3.3798208,6.3272866 3.3799755,6.300927 3.3807049,6.1791157 3.7827637,5.4304885 4.0119612,5.1242023 4.3610419,4.6577115 4.7379099,4.2928647 5.2619193,3.9141076 5.6486678,3.6345668 6.3704433,3.3203624 6.8897667,3.2054716 7.4408682,3.083552 7.4136523,3.0841999 12.000582,3.0836407 c 4.755191,-6.076e-4 4.638062,-0.00402 5.249518,0.1560933 0.452031,0.1183984 1.176783,0.4354421 1.337333,0.5850161 0.03021,0.028144 0.173043,0.1317041 0.317398,0.2301271 0.292212,0.199227 0.426262,0.3208959 0.788202,0.7153955 0.254319,0.2771958 0.544698,0.6817048 0.587278,0.8180938 0.01323,0.042371 0.07765,0.1662708 0.143154,0.2753387 0.06551,0.1090648 0.128086,0.2482312 0.139061,0.3092555 0.01098,0.061024 0.03014,0.1248733 0.04259,0.1418827 0.01244,0.017013 0.03258,0.072672 0.04474,0.1237045 0.01216,0.051027 0.0411,0.1345258 0.06431,0.185553 0.05503,0.121019 0.09668,0.2855648 0.153254,0.6054879 0.03937,0.222636 0.04614,0.9157647 0.04662,4.7756562 5.46e-4,4.386042 -0.0012,4.5245 -0.06121,4.839469 -0.07449,0.390915 -0.128654,0.586561 -0.252345,0.911489 -0.444623,1.167991 -1.333528,2.130986 -2.483258,2.690244 -0.37699,0.183378 -0.60783,0.261031 -1.176575,0.395798 -0.276771,0.06559 -0.303734,0.06599 -4.808956,0.07265 -3.564631,0.0053 -4.589969,-0.0019 -4.808958,-0.03321 z m 9.1694894,-1.575246 c 0.480876,-0.0879 0.786268,-0.19339 1.143633,-0.39505 0.910924,-0.514027 1.546982,-1.461972 1.686978,-2.514182 0.01128,-0.08473 0.01939,-2.075199 0.01801,-4.423259 -0.0027,-4.6220805 5.47e-4,-4.526961 -0.169863,-5.012248 C 19.016331,6.5212861 18.966885,6.4155155 18.799626,6.1673287 18.583794,5.8470693 18.482621,5.7347588 18.193749,5.4947523 17.656524,5.0484042 17.179638,4.8240308 16.520428,4.7074595 16.298618,4.6682347 15.63342,4.6613946 12.007974,4.6610129 7.4465961,4.6606085 7.4797721,4.6595686 6.998001,4.8166914 6.7600806,4.8943155 6.3128473,5.1128991 6.1188633,5.2463633 5.9014033,5.3959796 5.4695494,5.8193344 5.2971029,6.051952 4.9890834,6.4674465 4.7564741,7.0460403 4.6792792,7.5887294 c -0.044889,0.3155508 -0.043166,8.4882366 0.00186,8.8134126 0.1906145,1.376749 1.1552822,2.471368 2.5024189,2.839524 0.3551408,0.09706 0.5192347,0.100611 4.7934939,0.103889 3.505472,0.0027 4.325334,-0.0044 4.515161,-0.03911 z M 11.575018,16.845812 C 9.9230596,16.691424 8.4673793,15.663928 7.7621995,14.154526 7.4566479,13.500507 7.3381885,12.943228 7.3381885,12.159812 c 0,-0.787856 0.1201905,-1.350194 0.4297854,-2.010852 C 7.8786037,9.9128829 8.1835818,9.4112964 8.2758363,9.3136988 8.2959232,9.2924564 8.4027049,9.1678007 8.5131388,9.0366929 9.3321559,8.064367 10.665381,7.4638096 12.007979,7.4624302 c 1.228416,-0.00124 2.255563,0.4021754 3.258494,1.2798626 0.143807,0.1258493 0.544738,0.6159935 0.708493,0.8661446 0.558132,0.8526046 0.833223,1.9535966 0.736492,2.9476566 -0.147348,1.514225 -0.944298,2.818317 -2.199444,3.599069 -0.544722,0.338841 -1.015336,0.513794 -1.761817,0.654967 -0.241448,0.04566 -0.865609,0.06461 -1.175179,0.03569 z m 1.112749,-1.626381 c 0.649226,-0.149606 1.154548,-0.437779 1.618628,-0.923068 0.390506,-0.408351 0.636569,-0.882179 0.784298,-1.510275 0.08016,-0.340821 0.0703,-0.977911 -0.02071,-1.337088 C 14.847388,10.570391 14.289222,9.8369435 13.523339,9.416654 13.325138,9.3078873 12.924108,9.1577428 12.672045,9.0979308 12.409285,9.0355756 11.693913,9.0255992 11.44896,9.080877 10.967138,9.1895941 10.50122,9.3925497 10.17113,9.6375052 9.2628668,10.311515 8.7567376,11.490402 8.9181698,12.555929 c 0.1341544,0.885488 0.5499006,1.593577 1.2497232,2.128504 0.359607,0.274873 0.951939,0.51392 1.44577,0.583467 0.253309,0.03568 0.819919,0.01011 1.074101,-0.04846 z M 16.354166,8.3368418 C 15.977009,8.2071546 15.73122,7.9445356 15.608463,7.5400771 15.375536,6.772636 16.113203,5.9624862 16.911051,6.1094933 c 0.392248,0.07228 0.687622,0.296771 0.860192,0.653774 0.08865,0.1834009 0.09701,0.2267648 0.09539,0.4948115 -0.0015,0.2525581 -0.01334,0.3178319 -0.08418,0.4650402 -0.268787,0.5585894 -0.855478,0.8106853 -1.428287,0.6137228 z"
     id="path2526"
     sodipodi:nodetypes="cssssscsssccscssssssssccscsccccsscsssccssscscccsssssccsssssscsssssccsssccsssscss" />
</svg>
