<?xml version="1.0" encoding="UTF-8" standalone="no"?>
<!-- <svg width="296" height="541" viewBox="0 0 296 541" fill="none" xmlns="http://www.w3.org/2000/svg">
<g filter="url(#filter0_d_602_7)">
<path d="M292 0.0969136L211.989 0C134.399 0 84.277 51.4587 84.277 131.191V191.638H4V301.024H84.277L84.1802 533H196.5L196.597 301.024H288.709L288.636 191.662H196.597V140.373C196.597 115.709 202.43 103.232 234.497 103.232L291.758 103.208L292 0.0969136Z" fill="black"/>
</g>
<defs>
<filter id="filter0_d_602_7" x="0" y="0" width="296" height="541" filterUnits="userSpaceOnUse" color-interpolation-filters="sRGB">
<feFlood flood-opacity="0" result="BackgroundImageFix"/>
<feColorMatrix in="SourceAlpha" type="matrix" values="0 0 0 0 0 0 0 0 0 0 0 0 0 0 0 0 0 0 127 0" result="hardAlpha"/>
<feOffset dy="4"/>
<feGaussianBlur stdDeviation="2"/>
<feComposite in2="hardAlpha" operator="out"/>
<feColorMatrix type="matrix" values="0 0 0 0 0 0 0 0 0 0 0 0 0 0 0 0 0 0 0.25 0"/>
<feBlend mode="normal" in2="BackgroundImageFix" result="effect1_dropShadow_602_7"/>
<feBlend mode="normal" in="SourceGraphic" in2="effect1_dropShadow_602_7" result="shape"/>
</filter>
</defs>
</svg> -->

<svg
   width="36"
   height="36"
   viewBox="0 0 24 24"
   fill="none"
   stroke="currentColor"
   stroke-width="2"
   stroke-linecap="round"
   stroke-linejoin="round"
   class="lucide lucide-facebook-icon lucide-facebook"
   version="1.1"
   id="svg826"
   sodipodi:docname="Instagram_template.svg"
   inkscape:version="1.1 (c4e8f9e, 2021-05-24)"
   xmlns:inkscape="http://www.inkscape.org/namespaces/inkscape"
   xmlns:sodipodi="http://sodipodi.sourceforge.net/DTD/sodipodi-0.dtd"
   xmlns="http://www.w3.org/2000/svg"
   xmlns:svg="http://www.w3.org/2000/svg">
  <defs
     id="defs830" />
  <sodipodi:namedview
     id="namedview828"
     pagecolor="#ffffff"
     bordercolor="#666666"
     borderopacity="1.0"
     inkscape:pageshadow="2"
     inkscape:pageopacity="0.0"
     inkscape:pagecheckerboard="0"
     showgrid="false"
     showguides="true"
     inkscape:guide-bbox="true"
     inkscape:zoom="7.2846691"
     inkscape:cx="24.503515"
     inkscape:cy="35.005022"
     inkscape:window-width="1277"
     inkscape:window-height="701"
     inkscape:window-x="340"
     inkscape:window-y="38"
     inkscape:window-maximized="0"
     inkscape:current-layer="svg826" />
  <g
     id="g1268"
     transform="matrix(0.05401275,0,0,0.05401275,9.8050023,10.135226)">
    <path
       id="path5"
       d="m 262.80829,34.524703 c 0,122.702227 -99.46666,222.168887 -222.167999,222.168887 -122.702224,0 -222.171561,-99.46666 -222.171561,-222.168887 0,-122.702224 99.469337,-222.168893 222.171561,-222.168893 122.701339,0 222.167999,99.466669 222.167999,222.168893"
       style="fill:#231f20;fill-opacity:1;fill-rule:evenodd;stroke:none;stroke-width:0.177778" />
    <path
       id="path6"
       d="M -18.275266,-71.535743 H 99.554958 c 26.524442,0 48.124442,21.592 48.124442,48.120001 V 93.798482 c 0,26.527108 -21.6,48.119108 -48.124442,48.119108 H -18.275266 c -26.527111,0 -48.119111,-21.592 -48.119111,-48.119108 V -23.415742 c 0,-26.528001 21.592,-48.120001 48.119111,-48.120001 z m 58.607112,60.458668 h 0.616889 c 25.293334,0 46.268445,20.975111 46.268445,46.268445 v 0 c 0,25.910222 -20.975111,46.885334 -46.268445,46.885334 h -0.616889 c -25.293333,0 -46.2684449,-20.975112 -46.2684449,-46.885334 v 0 c 0,-25.293334 20.9751119,-46.268445 46.2684449,-46.268445 z m 0,-24.060445 h 0.616889 c 38.248889,0 70.330665,32.0800003 70.330665,70.32889 v 0 c 0,38.865778 -32.081776,70.328 -70.330665,70.328 h -0.616889 c -38.2488892,0 -69.712001,-31.462222 -69.712001,-70.328 v 0 c 0,-38.2488897 31.4631118,-70.32889 69.712001,-70.32889 z m 69.712004,-13.571556 v 0 c 8.01777,0 14.80889,6.785778 14.80889,14.805334 v 0 c 0,8.020444 -6.79112,14.806222 -14.80889,14.806222 v 0 c -8.64,0 -14.808892,-6.785778 -14.808892,-14.806222 v 0 c 0,-8.019556 6.168892,-14.805334 14.808892,-14.805334 z M -18.892155,-93.744632 H 100.17718 c 38.24889,0 69.70667,31.463112 69.70667,69.712001 V 94.41537 c 0,38.24889 -31.45778,69.71111 -69.70667,69.71111 H -18.892155 c -38.248889,0 -69.712,-31.46222 -69.712,-69.71111 V -24.032631 c 0,-38.248889 31.463111,-69.712001 69.712,-69.712001 v 0"
       style="fill:#ffffff;fill-opacity:1;fill-rule:evenodd;stroke:none;stroke-width:0.177778" />
  </g>
</svg>
