<svg width="533" height="533" viewBox="0 0 533 533" fill="none" xmlns="http://www.w3.org/2000/svg">
<path d="M266.166 129.5C239.136 129.5 212.713 137.516 190.239 152.533C167.764 167.55 150.247 188.894 139.903 213.866C129.559 238.84 126.853 266.32 132.126 292.83C137.399 319.34 150.416 343.693 169.529 362.806C188.642 381.916 212.993 394.933 239.503 400.206C266.016 405.48 293.493 402.773 318.466 392.43C343.44 382.086 364.783 364.57 379.8 342.096C394.82 319.62 402.833 293.196 402.833 266.166C402.876 248.206 399.373 230.416 392.52 213.816C385.666 197.214 375.603 182.13 362.903 169.431C350.203 156.731 335.12 146.666 318.52 139.814C301.916 132.961 284.126 129.456 266.166 129.5ZM266.166 355.166C248.563 355.166 231.356 349.946 216.72 340.166C202.086 330.39 190.678 316.49 183.942 300.226C177.205 283.963 175.443 266.07 178.877 248.803C182.311 231.54 190.787 215.68 203.233 203.233C215.68 190.787 231.54 182.311 248.803 178.877C266.07 175.443 283.963 177.205 300.226 183.942C316.49 190.678 330.39 202.086 340.166 216.72C349.946 231.356 355.166 248.563 355.166 266.166C355.166 289.77 345.79 312.41 329.1 329.1C312.41 345.79 289.77 355.166 266.166 355.166ZM440.5 123.833C440.5 130.426 438.546 136.871 434.883 142.352C431.22 147.834 426.013 152.107 419.923 154.629C413.833 157.152 407.13 157.812 400.663 156.526C394.196 155.24 388.26 152.065 383.596 147.404C378.936 142.742 375.76 136.803 374.473 130.337C373.186 123.87 373.846 117.168 376.37 111.077C378.893 104.987 383.166 99.7807 388.646 96.118C394.13 92.455 400.573 90.5 407.166 90.5C416.006 90.5 424.486 94.012 430.736 100.263C436.99 106.514 440.5 114.993 440.5 123.833ZM530.833 157.167C531.803 115.728 516.346 75.5867 487.833 45.5C457.906 16.623 417.746 0.798667 376.166 1.5C332.833 -0.5 199.5 -0.5 156.167 1.5C114.74 0.603 74.626 16.0503 44.5 44.5C15.988 74.5867 0.530667 114.728 1.5 156.167C-0.5 199.5 -0.5 332.833 1.5 376.166C0.530667 417.606 15.988 457.746 44.5 487.833C74.626 516.283 114.74 531.73 156.167 530.833C200.166 533.5 332.166 533.5 376.166 530.833C417.606 531.803 457.746 516.346 487.833 487.833C516.346 457.746 531.803 417.606 530.833 376.166C532.833 332.833 532.833 199.5 530.833 156.167V157.167ZM474.166 423.833C469.64 435.3 462.81 445.71 454.093 454.426C445.376 463.143 434.966 469.973 423.5 474.5C371.753 484.963 318.853 488.55 266.166 485.166C213.593 488.553 160.8 484.966 109.167 474.5C97.7023 469.973 87.2893 463.143 78.574 454.426C69.8583 445.71 63.026 435.3 58.5 423.833C44.5 388.5 47.5 305.166 47.5 266.5C47.5 227.833 44.5 144.167 58.5 109.167C62.8983 97.589 69.682 87.0657 78.4107 78.2793C87.1393 69.4933 97.618 62.6407 109.167 58.1667C160.8 47.6993 213.593 44.1127 266.166 47.5C318.853 44.1183 371.753 47.705 423.5 58.1667C434.966 62.6927 445.376 69.525 454.093 78.2407C462.81 86.956 469.64 97.369 474.166 108.833C488.166 144.167 484.833 227.5 484.833 266.166C484.833 304.833 488.166 388.5 474.166 423.5V423.833Z" fill="black"/>
</svg>
