<svg width="3105" height="731" viewBox="0 0 3105 731" fill="none" xmlns="http://www.w3.org/2000/svg">
<path d="M1 1.00027L204.013 204.404H1V1.00027Z" fill="#171717" stroke="#171717" stroke-width="0.16" stroke-miterlimit="10"/>
<path d="M407.416 1.00027V204.404H204.012L407.416 1.00027Z" fill="#171717" stroke="#171717" stroke-width="0.16" stroke-miterlimit="10"/>
<path d="M407.417 204.404H1L407.417 407.808V204.404ZM1 204.404L407.417 407.808H1V204.404Z" fill="#171717"/>
<path d="M1 204.404H407.417V407.808M1 204.404L407.417 407.808M1 204.404V407.808H407.417" stroke="#171717" stroke-width="0.16" stroke-miterlimit="10"/>
<path d="M895.585 1.00027H488.777L692.181 204.404L895.585 1.00027ZM488.777 1.00027L692.181 204.404H488.777V1.00027Z" fill="#171717"/>
<path d="M488.777 1.00027H895.585L692.181 204.404M488.777 1.00027L692.181 204.404M488.777 1.00027V204.404H692.181" stroke="#171717" stroke-width="0.16" stroke-miterlimit="10"/>
<path d="M692.181 204.404H488.777L895.585 407.808L692.181 204.404ZM488.777 204.404L895.585 407.808H488.777V204.404Z" fill="#171717"/>
<path d="M488.777 204.404H692.181L895.585 407.808M488.777 204.404L895.585 407.808M488.777 204.404V407.808H895.585" stroke="#171717" stroke-width="0.16" stroke-miterlimit="10"/>
<path d="M976.955 204.404H1180.36L976.955 407.808V204.404Z" fill="#171717" stroke="#171717" stroke-width="0.16" stroke-miterlimit="10"/>
<path d="M1180.36 204.404H1383.76V407.808L1180.36 204.404Z" fill="#171717" stroke="#171717" stroke-width="0.16" stroke-miterlimit="10"/>
<path d="M1383.76 1.00027H976.955L1383.76 204.404V1.00027ZM976.955 1.00027L1383.76 204.404H976.955V1.00027Z" fill="#171717"/>
<path d="M976.955 1.00027H1383.76V204.404M976.955 1.00027L1383.76 204.404M976.955 1.00027V204.404H1383.76" stroke="#171717" stroke-width="0.16" stroke-miterlimit="10"/>
<path d="M1 407.808V1.00005L204.013 204.404L407.417 1.00005V407.808H1Z" stroke="#171717" stroke-width="0.16" stroke-miterlimit="10" stroke-linecap="round" stroke-linejoin="round"/>
<path d="M488.777 407.808V1.00005H895.585L692.181 204.404L895.585 407.808H488.777Z" stroke="#171717" stroke-width="0.16" stroke-miterlimit="10" stroke-linecap="round" stroke-linejoin="round"/>
<path d="M976.955 407.808V1.00005H1383.76V407.808L1180.36 204.404L976.955 407.808Z" stroke="#171717" stroke-width="0.16" stroke-miterlimit="10" stroke-linecap="round" stroke-linejoin="round"/>
<path d="M1465.07 407.808V345.304H1470.32L1493.63 374.109L1516.88 345.304H1522.18V407.808H1517.04V352.619L1493.63 381.727L1470.07 352.619V407.808H1465.07Z" fill="#171717"/>
<path d="M1564.46 381.878C1564.46 388.613 1566.33 393.948 1570.06 397.87C1573.82 401.805 1578.85 403.772 1585.15 403.772C1591.43 403.772 1596.45 401.805 1600.18 397.87C1603.94 393.948 1605.83 388.613 1605.83 381.878V345.304H1611.03V381.626C1611.03 390.038 1608.68 396.722 1604.01 401.653C1599.33 406.572 1593.04 409.019 1585.15 409.019C1577.24 409.019 1570.96 406.572 1566.33 401.653C1561.69 396.747 1559.37 390.076 1559.37 381.626V345.304H1564.46V381.878Z" fill="#171717"/>
<path d="M1677.63 354.182C1675.03 352.442 1672.56 351.143 1670.21 350.298C1667.89 349.465 1665.58 349.036 1663.3 349.036C1659.49 349.036 1656.38 350.159 1653.97 352.366C1651.57 354.586 1650.39 357.385 1650.39 360.74C1650.39 363.502 1651.15 365.76 1652.71 367.5C1654.24 369.215 1657.57 371.158 1662.69 373.302C1662.98 373.44 1663.45 373.629 1664.06 373.856C1669.83 376.215 1673.69 378.472 1675.61 380.616C1676.95 382.105 1677.98 383.782 1678.69 385.661C1679.38 387.515 1679.75 389.508 1679.75 391.614C1679.75 396.596 1678.01 400.707 1674.55 403.923C1671.08 407.127 1666.65 408.716 1661.28 408.716C1658.56 408.716 1655.86 408.249 1653.21 407.354C1650.55 406.42 1647.85 405.02 1645.14 403.166V397.062C1648.09 399.383 1650.89 401.111 1653.51 402.208C1656.12 403.318 1658.68 403.873 1661.18 403.873C1665.24 403.873 1668.47 402.763 1670.87 400.543C1673.25 398.298 1674.45 395.246 1674.45 391.412C1674.45 388.6 1673.63 386.292 1672.03 384.501C1670.41 382.697 1666.7 380.566 1660.93 378.145C1654.94 375.66 1650.83 373.175 1648.62 370.678C1646.43 368.169 1645.34 364.953 1645.34 361.043C1645.34 356.175 1647.01 352.202 1650.33 349.137C1653.69 346.047 1658.07 344.496 1663.45 344.496C1665.9 344.496 1668.29 344.837 1670.61 345.505C1672.92 346.186 1675.27 347.208 1677.63 348.582V354.182Z" fill="#171717"/>
<path d="M1729.73 407.808V349.794H1706.42V345.304H1758.38V349.794H1735.08V407.808H1729.73Z" fill="#171717"/>
<path d="M1817.4 378.145V403.621H1827.8C1834.18 403.621 1838.84 402.637 1841.77 400.645C1844.72 398.639 1846.21 395.474 1846.21 391.16C1846.21 387.238 1844.67 384.085 1841.62 381.727C1838.55 379.343 1834.47 378.145 1829.36 378.145H1817.4ZM1817.4 349.34V373.958H1827.59C1831.66 373.958 1834.93 372.823 1837.43 370.527C1839.92 368.245 1841.17 365.23 1841.17 361.497C1841.17 357.739 1839.87 354.775 1837.28 352.619C1834.72 350.437 1831.21 349.34 1826.79 349.34H1817.4ZM1812.41 407.808V345.304H1827.19C1833.03 345.304 1837.68 346.741 1841.11 349.592C1844.57 352.455 1846.31 356.314 1846.31 361.144C1846.31 364.373 1845.54 367.16 1844.04 369.468C1842.55 371.789 1840.33 373.668 1837.38 375.068C1842.11 376.253 1845.71 378.258 1848.13 381.071C1850.54 383.871 1851.76 387.415 1851.76 391.715C1851.76 394.414 1851.12 396.874 1849.84 399.081C1848.56 401.3 1846.74 403.18 1844.39 404.68C1842.6 405.828 1840.52 406.635 1838.14 407.102C1835.78 407.581 1832.12 407.808 1827.19 407.808H1812.41Z" fill="#171717"/>
<path d="M1885.43 407.808V345.304H1919.33V349.34H1890.42V374.109H1918.37V378.145H1890.42V403.621H1920.03V407.808H1885.43Z" fill="#171717"/>
<path d="M1983.21 381.777H2007.23L1995.27 353.426L1983.21 381.777ZM1966.97 407.808L1994.21 344.749H1996.23L2023.52 407.808H2018.22L2008.99 386.065H1981.5L1972.27 407.808H1966.97Z" fill="#171717"/>
<path d="M2056.5 349.491V373.504H2060.38C2065.11 373.504 2068.41 373.39 2070.27 373.151C2072.11 372.924 2073.66 372.52 2074.91 371.94C2077.22 370.944 2078.96 369.518 2080.11 367.702C2081.24 365.899 2081.82 363.641 2081.82 360.942C2081.82 357.323 2080.52 354.51 2077.94 352.518C2075.38 350.512 2071.72 349.491 2066.99 349.491H2056.5ZM2051.5 345.304H2066.69C2073.33 345.304 2078.44 346.653 2081.97 349.34C2085.53 352.038 2087.32 355.91 2087.32 360.942C2087.32 364.776 2086.32 367.98 2084.34 370.527C2082.35 373.05 2079.36 374.954 2075.36 376.228C2076.5 376.871 2077.53 377.628 2078.44 378.498C2079.37 379.381 2080.22 380.352 2080.96 381.424L2098.17 407.808H2092.47L2082.53 392.422C2080.57 389.433 2078.87 386.961 2077.43 385.006C2075.98 383.064 2074.85 381.664 2074.05 380.819C2072.94 379.721 2071.47 378.94 2069.66 378.498C2067.85 378.031 2065.16 377.792 2061.64 377.792H2056.5V407.808H2051.5V345.304Z" fill="#171717"/>
<path d="M2177.76 403.167C2174.05 405.084 2170.38 406.534 2166.76 407.505C2163.13 408.438 2159.51 408.918 2155.92 408.918C2152.31 408.918 2148.89 408.438 2145.67 407.505C2142.45 406.572 2139.43 405.172 2136.64 403.318C2132.03 400.367 2128.46 396.508 2125.95 391.766C2123.43 387.036 2122.17 381.878 2122.17 376.329C2122.17 372.129 2122.99 368.055 2124.64 364.12C2126.32 360.16 2128.69 356.692 2131.75 353.728C2134.97 350.613 2138.62 348.255 2142.7 346.666C2146.8 345.064 2151.2 344.244 2155.92 344.244C2159.33 344.244 2162.88 344.736 2166.51 345.707C2170.13 346.653 2173.89 348.116 2177.76 350.096V355.242C2173.55 353.035 2169.65 351.382 2166.06 350.298C2162.45 349.226 2159.02 348.684 2155.76 348.684C2152.84 348.684 2150.04 349.1 2147.39 349.894C2144.73 350.676 2142.22 351.824 2139.87 353.325C2136 355.948 2132.99 359.29 2130.84 363.313C2128.72 367.349 2127.66 371.763 2127.66 376.53C2127.66 380.201 2128.35 383.77 2129.73 387.225C2131.11 390.656 2133.06 393.67 2135.59 396.255C2138.13 398.879 2141.15 400.909 2144.62 402.309C2148.07 403.722 2151.79 404.428 2155.76 404.428C2158.98 404.428 2162.4 403.898 2166 402.814C2169.6 401.742 2173.52 400.077 2177.76 397.819V403.167Z" fill="#171717"/>
<path d="M2210.98 407.808V345.304H2215.98V374.21H2257.55V345.304H2262.59V407.808H2257.55V378.649H2215.98V407.808H2210.98Z" fill="#171717"/>
<path d="M2300.68 407.808V345.304H2306.08V407.808H2300.68Z" fill="#171717"/>
<path d="M2360.72 407.808V349.794H2337.41V345.304H2389.37V349.794H2366.07V407.808H2360.72Z" fill="#171717"/>
<path d="M2420.34 407.808V345.304H2454.24V349.34H2425.33V374.109H2453.28V378.145H2425.33V403.621H2454.94V407.808H2420.34Z" fill="#171717"/>
<path d="M2540.47 403.167C2536.76 405.084 2533.09 406.534 2529.47 407.505C2525.84 408.438 2522.22 408.918 2518.63 408.918C2515.02 408.918 2511.6 408.438 2508.38 407.505C2505.16 406.572 2502.14 405.172 2499.35 403.318C2494.74 400.367 2491.17 396.508 2488.66 391.766C2486.14 387.036 2484.88 381.878 2484.88 376.329C2484.88 372.129 2485.7 368.055 2487.35 364.12C2489.03 360.16 2491.4 356.692 2494.46 353.728C2497.68 350.613 2501.33 348.255 2505.41 346.666C2509.51 345.064 2513.91 344.244 2518.63 344.244C2522.04 344.244 2525.59 344.736 2529.22 345.707C2532.84 346.653 2536.6 348.116 2540.47 350.096V355.242C2536.26 353.035 2532.36 351.382 2528.77 350.298C2525.16 349.226 2521.73 348.684 2518.47 348.684C2515.55 348.684 2512.75 349.1 2510.1 349.894C2507.44 350.676 2504.93 351.824 2502.58 353.325C2498.71 355.948 2495.7 359.29 2493.55 363.313C2491.43 367.349 2490.37 371.763 2490.37 376.53C2490.37 380.201 2491.06 383.77 2492.44 387.225C2493.82 390.656 2495.77 393.67 2498.29 396.255C2500.84 398.879 2503.86 400.909 2507.33 402.309C2510.78 403.722 2514.5 404.428 2518.47 404.428C2521.69 404.428 2525.11 403.898 2528.71 402.814C2532.31 401.742 2536.23 400.077 2540.47 397.819V403.167Z" fill="#171717"/>
<path d="M2590.29 407.808V349.794H2566.98V345.304H2618.95V349.794H2595.64V407.808H2590.29Z" fill="#171717"/>
<path d="M2654.5 381.878C2654.5 388.613 2656.37 393.948 2660.1 397.87C2663.86 401.805 2668.89 403.772 2675.19 403.772C2681.47 403.772 2686.49 401.805 2690.22 397.87C2693.98 393.948 2695.87 388.613 2695.87 381.878V345.304H2701.07V381.626C2701.07 390.038 2698.72 396.722 2694.05 401.653C2689.38 406.572 2683.08 409.019 2675.19 409.019C2667.28 409.019 2661 406.572 2656.37 401.653C2651.73 396.747 2649.41 390.076 2649.41 381.626V345.304H2654.5V381.878Z" fill="#171717"/>
<path d="M2743.21 349.491V373.504H2747.09C2751.82 373.504 2755.13 373.39 2756.98 373.151C2758.82 372.924 2760.37 372.52 2761.62 371.94C2763.93 370.944 2765.67 369.518 2766.82 367.702C2767.95 365.899 2768.53 363.641 2768.53 360.942C2768.53 357.323 2767.23 354.51 2764.65 352.518C2762.09 350.512 2758.43 349.491 2753.7 349.491H2743.21ZM2738.21 345.304H2753.4C2760.04 345.304 2765.15 346.653 2768.68 349.34C2772.24 352.038 2774.03 355.91 2774.03 360.942C2774.03 364.776 2773.03 367.98 2771.05 370.527C2769.06 373.05 2766.07 374.954 2762.07 376.228C2763.21 376.871 2764.24 377.628 2765.15 378.498C2766.09 379.381 2766.93 380.352 2767.67 381.424L2784.88 407.808H2779.18L2769.24 392.422C2767.28 389.433 2765.58 386.961 2764.14 385.006C2762.69 383.064 2761.56 381.664 2760.76 380.819C2759.65 379.721 2758.18 378.94 2756.37 378.498C2754.56 378.031 2751.87 377.792 2748.35 377.792H2743.21V407.808H2738.21V345.304Z" fill="#171717"/>
<path d="M2812.51 407.808V345.304H2846.41V349.34H2817.5V374.109H2845.45V378.145H2817.5V403.621H2847.11V407.808H2812.51Z" fill="#171717"/>
</svg>
