<svg width="1283" height="303" viewBox="0 0 1283 303" fill="none" xmlns="http://www.w3.org/2000/svg">
<path d="M1 1L84.8386 85H1V1Z" fill="#171717" stroke="#171717" stroke-width="0.16" stroke-miterlimit="10"/>
<path d="M168.839 1V85H84.8389L168.839 1Z" fill="#171717" stroke="#171717" stroke-width="0.16" stroke-miterlimit="10"/>
<path d="M168.839 85H1L168.839 169V85ZM1 85L168.839 169H1V85Z" fill="#171717"/>
<path d="M1 85H168.839V169M1 85L168.839 169M1 85V169H168.839" stroke="#171717" stroke-width="0.16" stroke-miterlimit="10"/>
<path d="M370.437 1H202.438L286.437 85L370.437 1ZM202.438 1L286.437 85H202.438V1Z" fill="#171717"/>
<path d="M202.438 1H370.437L286.437 85M202.438 1L286.437 85M202.438 1V85H286.437" stroke="#171717" stroke-width="0.16" stroke-miterlimit="10"/>
<path d="M286.437 85H202.438L370.437 169L286.437 85ZM202.438 85L370.437 169H202.438V85Z" fill="#171717"/>
<path d="M202.438 85H286.437L370.437 169M202.438 85L370.437 169M202.438 85V169H370.437" stroke="#171717" stroke-width="0.16" stroke-miterlimit="10"/>
<path d="M404.042 85H488.042L404.042 169V85Z" fill="#171717" stroke="#171717" stroke-width="0.16" stroke-miterlimit="10"/>
<path d="M488.042 85H572.042V169L488.042 85Z" fill="#171717" stroke="#171717" stroke-width="0.16" stroke-miterlimit="10"/>
<path d="M572.042 1H404.042L572.042 85V1ZM404.042 1L572.042 85H404.042V1Z" fill="#171717"/>
<path d="M404.042 1H572.042V85M404.042 1L572.042 85M404.042 1V85H572.042" stroke="#171717" stroke-width="0.16" stroke-miterlimit="10"/>
<path d="M1 169V1L84.8386 85L168.839 1V169H1Z" stroke="#171717" stroke-width="0.16" stroke-miterlimit="10" stroke-linecap="round" stroke-linejoin="round"/>
<path d="M202.438 169V1H370.437L286.437 85L370.437 169H202.438Z" stroke="#171717" stroke-width="0.16" stroke-miterlimit="10" stroke-linecap="round" stroke-linejoin="round"/>
<path d="M404.042 169V1H572.042V169L488.042 85L404.042 169Z" stroke="#171717" stroke-width="0.16" stroke-miterlimit="10" stroke-linecap="round" stroke-linejoin="round"/>
<path d="M605.62 169V143.188H607.787L617.412 155.083L627.016 143.188H629.203V169H627.078V146.208L617.412 158.229L607.683 146.208V169H605.62Z" fill="#171717"/>
<path d="M646.664 158.292C646.664 161.073 647.435 163.276 648.976 164.896C650.528 166.521 652.606 167.333 655.205 167.333C657.799 167.333 659.872 166.521 661.414 164.896C662.966 163.276 663.747 161.073 663.747 158.292V143.188H665.893V158.188C665.893 161.661 664.924 164.422 662.997 166.458C661.065 168.49 658.466 169.5 655.205 169.5C651.94 169.5 649.346 168.49 647.435 166.458C645.518 164.432 644.56 161.677 644.56 158.188V143.188H646.664V158.292Z" fill="#171717"/>
<path d="M693.399 146.854C692.326 146.136 691.305 145.599 690.337 145.25C689.378 144.907 688.425 144.729 687.482 144.729C685.91 144.729 684.623 145.193 683.628 146.104C682.639 147.021 682.149 148.177 682.149 149.563C682.149 150.703 682.467 151.636 683.107 152.354C683.743 153.063 685.118 153.865 687.232 154.75C687.352 154.808 687.545 154.886 687.795 154.979C690.18 155.953 691.774 156.886 692.566 157.771C693.118 158.386 693.545 159.078 693.837 159.854C694.123 160.62 694.274 161.443 694.274 162.313C694.274 164.37 693.555 166.068 692.128 167.396C690.696 168.719 688.868 169.375 686.649 169.375C685.524 169.375 684.41 169.183 683.316 168.813C682.217 168.427 681.102 167.849 679.982 167.084V164.563C681.201 165.521 682.357 166.235 683.441 166.688C684.519 167.146 685.576 167.375 686.607 167.375C688.285 167.375 689.618 166.917 690.607 166C691.592 165.073 692.087 163.813 692.087 162.229C692.087 161.068 691.748 160.115 691.087 159.375C690.42 158.631 688.889 157.75 686.503 156.75C684.029 155.724 682.331 154.698 681.42 153.667C680.514 152.631 680.066 151.302 680.066 149.688C680.066 147.677 680.753 146.037 682.128 144.771C683.514 143.495 685.321 142.854 687.545 142.854C688.555 142.854 689.545 142.995 690.503 143.271C691.456 143.552 692.425 143.974 693.399 144.542V146.854Z" fill="#171717"/>
<path d="M714.915 169V145.042H705.29V143.188H726.748V145.042H717.123V169H714.915Z" fill="#171717"/>
<path d="M751.122 156.75V167.271H755.414C758.049 167.271 759.976 166.865 761.185 166.042C762.403 165.214 763.018 163.906 763.018 162.125C763.018 160.505 762.382 159.203 761.122 158.229C759.856 157.245 758.169 156.75 756.06 156.75H751.122ZM751.122 144.854V155.021H755.33C757.007 155.021 758.362 154.552 759.393 153.604C760.419 152.661 760.935 151.417 760.935 149.875C760.935 148.323 760.398 147.099 759.33 146.208C758.273 145.307 756.825 144.854 754.997 144.854H751.122ZM749.06 169V143.188H755.164C757.575 143.188 759.497 143.781 760.914 144.958C762.341 146.141 763.06 147.734 763.06 149.729C763.06 151.063 762.742 152.214 762.122 153.167C761.507 154.125 760.591 154.901 759.372 155.479C761.325 155.969 762.81 156.797 763.81 157.958C764.804 159.115 765.31 160.578 765.31 162.354C765.31 163.469 765.044 164.484 764.518 165.396C763.987 166.313 763.237 167.089 762.268 167.708C761.528 168.182 760.669 168.516 759.685 168.708C758.711 168.906 757.2 169 755.164 169H749.06Z" fill="#171717"/>
<path d="M779.214 169V143.188H793.214V144.854H781.276V155.083H792.818V156.75H781.276V167.271H793.506V169H779.214Z" fill="#171717"/>
<path d="M819.596 158.25H829.513L824.575 146.541L819.596 158.25ZM812.888 169L824.138 142.958H824.971L836.242 169H834.054L830.242 160.021H818.888L815.075 169H812.888Z" fill="#171717"/>
<path d="M849.859 144.917V154.833H851.464C853.417 154.833 854.781 154.786 855.547 154.688C856.307 154.594 856.948 154.427 857.464 154.188C858.417 153.776 859.135 153.188 859.609 152.438C860.078 151.693 860.318 150.76 860.318 149.646C860.318 148.151 859.781 146.99 858.714 146.167C857.656 145.339 856.146 144.917 854.193 144.917H849.859ZM847.797 143.188H854.068C856.813 143.188 858.922 143.745 860.38 144.854C861.849 145.969 862.589 147.568 862.589 149.646C862.589 151.229 862.177 152.552 861.359 153.604C860.536 154.646 859.302 155.432 857.651 155.958C858.12 156.224 858.547 156.536 858.922 156.896C859.307 157.26 859.656 157.661 859.964 158.104L867.068 169H864.714L860.609 162.646C859.802 161.411 859.099 160.391 858.505 159.583C857.906 158.781 857.438 158.203 857.109 157.854C856.651 157.401 856.042 157.078 855.297 156.896C854.547 156.703 853.438 156.604 851.984 156.604H849.859V169H847.797V143.188Z" fill="#171717"/>
<path d="M899.939 167.083C898.408 167.875 896.892 168.474 895.397 168.875C893.897 169.26 892.402 169.458 890.918 169.458C889.428 169.458 888.017 169.26 886.689 168.875C885.355 168.49 884.111 167.911 882.96 167.146C881.053 165.927 879.579 164.333 878.543 162.375C877.501 160.422 876.98 158.292 876.98 156C876.98 154.266 877.319 152.583 878.001 150.958C878.694 149.323 879.673 147.891 880.939 146.667C882.267 145.38 883.777 144.406 885.46 143.75C887.152 143.089 888.97 142.75 890.918 142.75C892.329 142.75 893.793 142.953 895.293 143.354C896.788 143.745 898.34 144.349 899.939 145.167V147.292C898.199 146.38 896.59 145.698 895.105 145.25C893.616 144.807 892.199 144.583 890.855 144.583C889.647 144.583 888.491 144.755 887.397 145.083C886.298 145.406 885.262 145.88 884.293 146.5C882.694 147.583 881.449 148.964 880.564 150.625C879.689 152.292 879.251 154.115 879.251 156.083C879.251 157.599 879.533 159.073 880.105 160.5C880.673 161.917 881.48 163.161 882.522 164.229C883.574 165.313 884.819 166.151 886.251 166.729C887.678 167.313 889.215 167.604 890.855 167.604C892.184 167.604 893.595 167.385 895.085 166.938C896.569 166.495 898.189 165.807 899.939 164.875V167.083Z" fill="#171717"/>
<path d="M913.66 169V143.188H915.723V155.125H932.889V143.188H934.973V169H932.889V156.958H915.723V169H913.66Z" fill="#171717"/>
<path d="M950.703 169V143.188H952.932V169H950.703Z" fill="#171717"/>
<path d="M975.494 169V145.042H965.869V143.188H987.327V145.042H977.702V169H975.494Z" fill="#171717"/>
<path d="M1000.12 169V143.188H1014.12V144.854H1002.18V155.083H1013.72V156.75H1002.18V167.271H1014.41V169H1000.12Z" fill="#171717"/>
<path d="M1049.73 167.083C1048.2 167.875 1046.68 168.474 1045.19 168.875C1043.69 169.26 1042.19 169.458 1040.71 169.458C1039.22 169.458 1037.81 169.26 1036.48 168.875C1035.14 168.49 1033.9 167.911 1032.75 167.146C1030.84 165.927 1029.37 164.333 1028.33 162.375C1027.29 160.422 1026.77 158.292 1026.77 156C1026.77 154.266 1027.11 152.583 1027.79 150.958C1028.48 149.323 1029.46 147.891 1030.73 146.667C1032.06 145.38 1033.57 144.406 1035.25 143.75C1036.94 143.089 1038.76 142.75 1040.71 142.75C1042.12 142.75 1043.58 142.953 1045.08 143.354C1046.58 143.745 1048.13 144.349 1049.73 145.167V147.292C1047.99 146.38 1046.38 145.698 1044.89 145.25C1043.4 144.807 1041.99 144.583 1040.64 144.583C1039.44 144.583 1038.28 144.755 1037.19 145.083C1036.09 145.406 1035.05 145.88 1034.08 146.5C1032.48 147.583 1031.24 148.964 1030.35 150.625C1029.48 152.292 1029.04 154.115 1029.04 156.083C1029.04 157.599 1029.32 159.073 1029.89 160.5C1030.46 161.917 1031.27 163.161 1032.31 164.229C1033.36 165.313 1034.61 166.151 1036.04 166.729C1037.47 167.313 1039 167.604 1040.64 167.604C1041.97 167.604 1043.38 167.385 1044.87 166.938C1046.36 166.495 1047.98 165.807 1049.73 164.875V167.083Z" fill="#171717"/>
<path d="M1070.3 169V145.042H1060.68V143.188H1082.14V145.042H1072.51V169H1070.3Z" fill="#171717"/>
<path d="M1096.82 158.292C1096.82 161.073 1097.59 163.276 1099.13 164.896C1100.68 166.521 1102.76 167.333 1105.36 167.333C1107.96 167.333 1110.03 166.521 1111.57 164.896C1113.12 163.276 1113.9 161.073 1113.9 158.292V143.188H1116.05V158.188C1116.05 161.661 1115.08 164.422 1113.15 166.458C1111.22 168.49 1108.62 169.5 1105.36 169.5C1102.1 169.5 1099.5 168.49 1097.59 166.458C1095.67 164.432 1094.72 161.677 1094.72 158.188V143.188H1096.82V158.292Z" fill="#171717"/>
<path d="M1133.45 144.917V154.833H1135.06C1137.01 154.833 1138.37 154.786 1139.14 154.688C1139.9 154.594 1140.54 154.427 1141.06 154.188C1142.01 153.776 1142.73 153.188 1143.2 152.438C1143.67 151.693 1143.91 150.76 1143.91 149.646C1143.91 148.151 1143.37 146.99 1142.31 146.167C1141.25 145.339 1139.74 144.917 1137.78 144.917H1133.45ZM1131.39 143.188H1137.66C1140.4 143.188 1142.51 143.745 1143.97 144.854C1145.44 145.969 1146.18 147.568 1146.18 149.646C1146.18 151.229 1145.77 152.552 1144.95 153.604C1144.13 154.646 1142.89 155.432 1141.24 155.958C1141.71 156.224 1142.14 156.536 1142.51 156.896C1142.9 157.26 1143.25 157.661 1143.56 158.104L1150.66 169H1148.31L1144.2 162.646C1143.39 161.411 1142.69 160.391 1142.1 159.583C1141.5 158.781 1141.03 158.203 1140.7 157.854C1140.24 157.401 1139.63 157.078 1138.89 156.896C1138.14 156.703 1137.03 156.604 1135.58 156.604H1133.45V169H1131.39V143.188Z" fill="#171717"/>
<path d="M1162.07 169V143.188H1176.07V144.854H1164.13V155.083H1175.68V156.75H1164.13V167.271H1176.36V169H1162.07Z" fill="#171717"/>
<path d="M1 1L84.8386 85H1V1Z" fill="#171717" stroke="#171717" stroke-width="0.16" stroke-miterlimit="10"/>
<path d="M168.839 1V85H84.8389L168.839 1Z" fill="#171717" stroke="#171717" stroke-width="0.16" stroke-miterlimit="10"/>
<path d="M168.839 85H1L168.839 169V85ZM1 85L168.839 169H1V85Z" fill="#171717"/>
<path d="M1 85H168.839V169M1 85L168.839 169M1 85V169H168.839" stroke="#171717" stroke-width="0.16" stroke-miterlimit="10"/>
<path d="M370.437 1H202.438L286.437 85L370.437 1ZM202.438 1L286.437 85H202.438V1Z" fill="#171717"/>
<path d="M202.438 1H370.437L286.437 85M202.438 1L286.437 85M202.438 1V85H286.437" stroke="#171717" stroke-width="0.16" stroke-miterlimit="10"/>
<path d="M286.437 85H202.438L370.437 169L286.437 85ZM202.438 85L370.437 169H202.438V85Z" fill="#171717"/>
<path d="M202.438 85H286.437L370.437 169M202.438 85L370.437 169M202.438 85V169H370.437" stroke="#171717" stroke-width="0.16" stroke-miterlimit="10"/>
<path d="M404.042 85H488.042L404.042 169V85Z" fill="#171717" stroke="#171717" stroke-width="0.16" stroke-miterlimit="10"/>
<path d="M488.042 85H572.042V169L488.042 85Z" fill="#171717" stroke="#171717" stroke-width="0.16" stroke-miterlimit="10"/>
<path d="M572.042 1H404.042L572.042 85V1ZM404.042 1L572.042 85H404.042V1Z" fill="#171717"/>
<path d="M404.042 1H572.042V85M404.042 1L572.042 85M404.042 1V85H572.042" stroke="#171717" stroke-width="0.16" stroke-miterlimit="10"/>
</svg>
