<svg width="101" height="36" viewBox="0 0 101 36" fill="none" xmlns="http://www.w3.org/2000/svg">
<path d="M3.337 32.378C3.337 31.8967 3.49533 31.4787 3.812 31.124C4.14133 30.7567 4.61633 30.573 5.237 30.573H7.65V32.682C7.33333 33.0493 6.95333 33.366 6.51 33.632C6.06667 33.898 5.579 34.031 5.047 34.031C4.65433 34.031 4.33133 33.9487 4.078 33.784C3.82467 33.6193 3.63467 33.4103 3.508 33.157C3.394 32.891 3.337 32.6313 3.337 32.378ZM2.976 27.476C3.318 27.3367 3.69167 27.1973 4.097 27.058C4.515 26.9187 5.02167 26.849 5.617 26.849C6.35167 26.849 6.871 27.058 7.175 27.476C7.49167 27.894 7.65 28.4197 7.65 29.053V29.566H5.275C4.287 29.566 3.48267 29.813 2.862 30.307C2.24133 30.7883 1.931 31.4787 1.931 32.378C1.931 33.1887 2.19067 33.8663 2.71 34.411C3.22933 34.9557 4.02733 35.228 5.104 35.228C5.61067 35.228 6.11733 35.1077 6.624 34.867C7.14333 34.6263 7.54867 34.3603 7.84 34.069L8.03 35H9.17V28.654C9.17 28.046 9.018 27.5077 8.714 27.039C8.41 26.5703 7.98567 26.203 7.441 25.937C6.909 25.671 6.28833 25.538 5.579 25.538C5.32567 25.538 5.00267 25.576 4.61 25.652C4.21733 25.7153 3.831 25.8103 3.451 25.937C3.08367 26.051 2.77967 26.1903 2.539 26.355L2.976 27.476ZM13.4313 35V28.654C13.71 28.3753 14.033 28.1093 14.4003 27.856C14.7677 27.6027 15.154 27.3937 15.5593 27.229C15.9773 27.0643 16.3637 26.982 16.7183 26.982L16.3573 25.785C16.028 25.785 15.667 25.8673 15.2743 26.032C14.8943 26.1967 14.527 26.3993 14.1723 26.64C13.8303 26.868 13.539 27.077 13.2983 27.267L12.8423 25.785H11.9493V35H13.4313ZM25.0065 33.347C24.6518 33.5243 24.2845 33.6763 23.9045 33.803C23.5372 33.917 23.0495 33.974 22.4415 33.974C21.8082 33.974 21.2698 33.8157 20.8265 33.499C20.3958 33.1823 20.0728 32.7517 19.8575 32.207C19.6422 31.6497 19.5345 31.029 19.5345 30.345C19.5472 29.6863 19.6675 29.091 19.8955 28.559C20.1362 28.027 20.4782 27.6027 20.9215 27.286C21.3648 26.9693 21.8968 26.811 22.5175 26.811C23.1128 26.811 23.6005 26.8807 23.9805 27.02C24.3605 27.1467 24.7278 27.286 25.0825 27.438L25.5385 26.393C25.2852 26.2157 24.9685 26.0637 24.5885 25.937C24.2212 25.8103 23.8538 25.7153 23.4865 25.652C23.1192 25.576 22.8088 25.538 22.5555 25.538C21.6308 25.538 20.8265 25.747 20.1425 26.165C19.4585 26.5703 18.9328 27.134 18.5655 27.856C18.2108 28.578 18.0272 29.414 18.0145 30.364C18.0145 31.3267 18.1918 32.1753 18.5465 32.91C18.9012 33.6447 19.4078 34.221 20.0665 34.639C20.7378 35.0443 21.5358 35.247 22.4605 35.247C22.7265 35.247 23.0432 35.209 23.4105 35.133C23.7778 35.0697 24.1452 34.9747 24.5125 34.848C24.8925 34.7213 25.2155 34.5757 25.4815 34.411L25.0065 33.347ZM29.4336 28.464C29.7376 28.1473 30.067 27.8687 30.4216 27.628C30.7763 27.3747 31.1373 27.172 31.5046 27.02C31.8846 26.868 32.2266 26.792 32.5306 26.792C33.164 26.792 33.5946 26.9947 33.8226 27.4C34.0633 27.8053 34.1836 28.3247 34.1836 28.958V35H35.6846V28.768C35.6846 28.1347 35.5833 27.5773 35.3806 27.096C35.178 26.602 34.8613 26.2157 34.4306 25.937C34.0126 25.6457 33.468 25.5 32.7966 25.5C32.3913 25.5 31.9733 25.5697 31.5426 25.709C31.112 25.8483 30.7066 26.0383 30.3266 26.279C29.9466 26.5197 29.611 26.792 29.3196 27.096L29.4336 28.464ZM29.4336 35V21.586L27.9516 21.795V35H29.4336ZM39.9988 35V25.785H38.4788V35H39.9988ZM39.2198 23.961C39.4985 23.961 39.7392 23.866 39.9418 23.676C40.1445 23.4733 40.2458 23.2263 40.2458 22.935C40.2458 22.6437 40.1382 22.403 39.9228 22.213C39.7202 22.0103 39.4795 21.909 39.2008 21.909C38.9095 21.909 38.6688 22.0103 38.4788 22.213C38.2888 22.403 38.1938 22.6437 38.1938 22.935C38.1938 23.2263 38.2888 23.4733 38.4788 23.676C38.6688 23.866 38.9158 23.961 39.2198 23.961ZM46.4793 25.937H44.8073V23.182L43.2873 23.6V25.937H41.9573L41.9763 27.077H43.2873V32.606C43.2873 33.1887 43.395 33.6763 43.6103 34.069C43.8257 34.4617 44.1297 34.7657 44.5223 34.981C44.915 35.1837 45.371 35.285 45.8903 35.285C46.0677 35.285 46.245 35.266 46.4223 35.228C46.5997 35.2027 46.7643 35.1647 46.9163 35.114C47.0683 35.0633 47.195 35.0127 47.2963 34.962L46.9353 33.784C46.8467 33.822 46.72 33.8663 46.5553 33.917C46.4033 33.955 46.2513 33.974 46.0993 33.974C45.6433 33.974 45.314 33.8283 45.1113 33.537C44.9087 33.2457 44.8073 32.8657 44.8073 32.397V27.077H46.9543L46.4793 25.937ZM57.0683 30.63V30.497C57.0683 29.5723 56.9289 28.7363 56.6503 27.989C56.3843 27.2417 55.9599 26.6463 55.3773 26.203C54.8073 25.7597 54.0599 25.538 53.1353 25.538C52.2233 25.538 51.4443 25.747 50.7983 26.165C50.1649 26.5703 49.6773 27.134 49.3353 27.856C49.0059 28.578 48.8413 29.414 48.8413 30.364C48.8413 31.3267 49.0186 32.1753 49.3733 32.91C49.7279 33.6447 50.2599 34.2147 50.9693 34.62C51.6913 35.0253 52.5906 35.228 53.6673 35.228C54.1233 35.228 54.5413 35.1837 54.9213 35.095C55.3139 35.019 55.6749 34.9113 56.0043 34.772C56.3463 34.62 56.6629 34.4617 56.9543 34.297L56.4603 33.195C55.9789 33.4357 55.5229 33.632 55.0923 33.784C54.6616 33.9233 54.1803 33.993 53.6483 33.993C52.8883 33.993 52.2739 33.8473 51.8053 33.556C51.3366 33.2647 50.9883 32.8657 50.7603 32.359C50.5449 31.8523 50.4183 31.276 50.3803 30.63H57.0683ZM50.4183 29.604C50.4816 29.0467 50.6146 28.559 50.8173 28.141C51.0326 27.723 51.3239 27.4 51.6913 27.172C52.0713 26.9313 52.5336 26.811 53.0783 26.811C53.6103 26.811 54.0473 26.9313 54.3893 27.172C54.7439 27.4 55.0163 27.723 55.2063 28.141C55.3963 28.559 55.5229 29.0467 55.5863 29.604H50.4183ZM65.7897 33.347C65.435 33.5243 65.0677 33.6763 64.6877 33.803C64.3204 33.917 63.8327 33.974 63.2247 33.974C62.5914 33.974 62.053 33.8157 61.6097 33.499C61.179 33.1823 60.856 32.7517 60.6407 32.207C60.4254 31.6497 60.3177 31.029 60.3177 30.345C60.3304 29.6863 60.4507 29.091 60.6787 28.559C60.9194 28.027 61.2614 27.6027 61.7047 27.286C62.148 26.9693 62.68 26.811 63.3007 26.811C63.896 26.811 64.3837 26.8807 64.7637 27.02C65.1437 27.1467 65.511 27.286 65.8657 27.438L66.3217 26.393C66.0684 26.2157 65.7517 26.0637 65.3717 25.937C65.0044 25.8103 64.637 25.7153 64.2697 25.652C63.9024 25.576 63.592 25.538 63.3387 25.538C62.414 25.538 61.6097 25.747 60.9257 26.165C60.2417 26.5703 59.716 27.134 59.3487 27.856C58.994 28.578 58.8104 29.414 58.7977 30.364C58.7977 31.3267 58.975 32.1753 59.3297 32.91C59.6844 33.6447 60.191 34.221 60.8497 34.639C61.521 35.0443 62.319 35.247 63.2437 35.247C63.5097 35.247 63.8264 35.209 64.1937 35.133C64.561 35.0697 64.9284 34.9747 65.2957 34.848C65.6757 34.7213 65.9987 34.5757 66.2647 34.411L65.7897 33.347ZM72.1739 25.937H70.5019V23.182L68.9819 23.6V25.937H67.6519L67.6709 27.077H68.9819V32.606C68.9819 33.1887 69.0895 33.6763 69.3049 34.069C69.5202 34.4617 69.8242 34.7657 70.2169 34.981C70.6095 35.1837 71.0655 35.285 71.5849 35.285C71.7622 35.285 71.9395 35.266 72.1169 35.228C72.2942 35.2027 72.4589 35.1647 72.6109 35.114C72.7629 35.0633 72.8895 35.0127 72.9909 34.962L72.6299 33.784C72.5412 33.822 72.4145 33.8663 72.2499 33.917C72.0979 33.955 71.9459 33.974 71.7939 33.974C71.3379 33.974 71.0085 33.8283 70.8059 33.537C70.6032 33.2457 70.5019 32.8657 70.5019 32.397V27.077H72.6489L72.1739 25.937ZM81.2618 25.785V32.302C80.9831 32.606 80.6601 32.891 80.2928 33.157C79.9255 33.4103 79.5581 33.613 79.1908 33.765C78.8361 33.9043 78.4941 33.974 78.1648 33.974C77.5441 33.974 77.1135 33.7713 76.8728 33.366C76.6321 32.9607 76.5118 32.4413 76.5118 31.808V25.785H75.0298V32.017C75.0298 32.6377 75.1248 33.195 75.3148 33.689C75.5175 34.183 75.8341 34.5693 76.2648 34.848C76.6955 35.1267 77.2465 35.266 77.9178 35.266C78.3231 35.266 78.7348 35.1963 79.1528 35.057C79.5835 34.9177 79.9888 34.7277 80.3688 34.487C80.7615 34.2337 81.0971 33.9613 81.3758 33.67L81.6418 35H82.7628V25.785H81.2618ZM87.1194 35V28.654C87.3981 28.3753 87.7211 28.1093 88.0884 27.856C88.4558 27.6027 88.8421 27.3937 89.2474 27.229C89.6654 27.0643 90.0518 26.982 90.4064 26.982L90.0454 25.785C89.7161 25.785 89.3551 25.8673 88.9624 26.032C88.5824 26.1967 88.2151 26.3993 87.8604 26.64C87.5184 26.868 87.2271 27.077 86.9864 27.267L86.5304 25.785H85.6374V35H87.1194ZM99.9296 30.63V30.497C99.9296 29.5723 99.7903 28.7363 99.5116 27.989C99.2456 27.2417 98.8213 26.6463 98.2386 26.203C97.6686 25.7597 96.9213 25.538 95.9966 25.538C95.0846 25.538 94.3056 25.747 93.6596 26.165C93.0263 26.5703 92.5386 27.134 92.1966 27.856C91.8673 28.578 91.7026 29.414 91.7026 30.364C91.7026 31.3267 91.8799 32.1753 92.2346 32.91C92.5893 33.6447 93.1213 34.2147 93.8306 34.62C94.5526 35.0253 95.4519 35.228 96.5286 35.228C96.9846 35.228 97.4026 35.1837 97.7826 35.095C98.1753 35.019 98.5363 34.9113 98.8656 34.772C99.2076 34.62 99.5243 34.4617 99.8156 34.297L99.3216 33.195C98.8403 33.4357 98.3843 33.632 97.9536 33.784C97.5229 33.9233 97.0416 33.993 96.5096 33.993C95.7496 33.993 95.1353 33.8473 94.6666 33.556C94.1979 33.2647 93.8496 32.8657 93.6216 32.359C93.4063 31.8523 93.2796 31.276 93.2416 30.63H99.9296ZM93.2796 29.604C93.3429 29.0467 93.4759 28.559 93.6786 28.141C93.8939 27.723 94.1853 27.4 94.5526 27.172C94.9326 26.9313 95.3949 26.811 95.9396 26.811C96.4716 26.811 96.9086 26.9313 97.2506 27.172C97.6053 27.4 97.8776 27.723 98.0676 28.141C98.2576 28.559 98.3843 29.0467 98.4476 29.604H93.2796Z" fill="white"/>
<path d="M10.225 12.425L14.45 6.2V18H16.875V1H15.375L9.7 9.4L3.725 1H2.25V18H4.65V5.975L9.35 12.55L10.225 12.425ZM24.0162 1H21.6162V11.925C21.6162 13.1417 21.8829 14.2333 22.4162 15.2C22.9662 16.15 23.7329 16.9 24.7162 17.45C25.7162 18 26.8912 18.275 28.2412 18.275C29.6079 18.275 30.7829 18 31.7662 17.45C32.7495 16.8833 33.5079 16.125 34.0412 15.175C34.5912 14.2083 34.8662 13.125 34.8662 11.925V1H32.4412V11.7C32.4412 12.6333 32.2662 13.45 31.9162 14.15C31.5829 14.8333 31.0995 15.3667 30.4662 15.75C29.8495 16.1167 29.1079 16.3 28.2412 16.3C27.4079 16.3 26.6745 16.1167 26.0412 15.75C25.4079 15.3833 24.9079 14.8583 24.5412 14.175C24.1912 13.475 24.0162 12.65 24.0162 11.7V1ZM38.677 17.075C38.8436 17.225 39.1186 17.375 39.502 17.525C39.8853 17.675 40.3103 17.8083 40.777 17.925C41.2603 18.0417 41.7353 18.1333 42.202 18.2C42.6853 18.2833 43.102 18.325 43.452 18.325C44.7686 18.325 45.877 18.1333 46.777 17.75C47.6936 17.35 48.3853 16.8083 48.852 16.125C49.3353 15.425 49.577 14.6333 49.577 13.75C49.577 13.1333 49.477 12.5833 49.277 12.1C49.077 11.6167 48.7853 11.1833 48.402 10.8C48.0353 10.4167 47.577 10.0667 47.027 9.75C46.4936 9.41667 45.877 9.09167 45.177 8.775C44.2103 8.325 43.3936 7.925 42.727 7.575C42.077 7.20833 41.5853 6.825 41.252 6.425C40.9353 6.00833 40.777 5.51667 40.777 4.95C40.777 4.2 41.0936 3.64167 41.727 3.275C42.377 2.90833 43.177 2.725 44.127 2.725C44.6603 2.725 45.1353 2.775 45.552 2.875C45.9853 2.95833 46.3686 3.06667 46.702 3.2C47.052 3.33333 47.3686 3.475 47.652 3.625L48.452 1.725C47.8853 1.44167 47.202 1.18333 46.402 0.949999C45.6186 0.716666 44.802 0.599999 43.952 0.599999C42.802 0.599999 41.8103 0.799999 40.977 1.2C40.1436 1.58333 39.502 2.10833 39.052 2.775C38.602 3.425 38.377 4.16667 38.377 5C38.377 5.65 38.4686 6.21667 38.652 6.7C38.8353 7.18333 39.1103 7.61667 39.477 8C39.8603 8.38333 40.3186 8.74167 40.852 9.075C41.402 9.39167 42.0436 9.71667 42.777 10.05C43.7103 10.45 44.502 10.8333 45.152 11.2C45.802 11.55 46.2936 11.9333 46.627 12.35C46.977 12.75 47.152 13.2333 47.152 13.8C47.152 14.2833 47.0103 14.7167 46.727 15.1C46.4436 15.4667 46.027 15.75 45.477 15.95C44.927 16.15 44.2436 16.25 43.427 16.25C42.927 16.25 42.4103 16.1917 41.877 16.075C41.3436 15.9583 40.8436 15.8167 40.377 15.65C39.927 15.4833 39.5436 15.325 39.227 15.175L38.677 17.075ZM64.5164 1H51.0664V2.9H56.5914V18H59.0164V2.9H64.8664L64.5164 1ZM80.0098 18C80.9098 18 81.7348 17.9083 82.4848 17.725C83.2348 17.525 83.8848 17.2333 84.4348 16.85C85.0014 16.45 85.4348 15.95 85.7348 15.35C86.0514 14.7333 86.2098 14 86.2098 13.15C86.2098 12.05 85.9264 11.15 85.3598 10.45C84.7931 9.75 84.0598 9.225 83.1598 8.875C83.7264 8.50833 84.2264 8.05833 84.6598 7.525C85.1098 6.975 85.3348 6.33333 85.3348 5.6C85.3348 4.45 85.0848 3.54167 84.5848 2.875C84.0848 2.20833 83.3931 1.73333 82.5098 1.45C81.6431 1.15 80.6348 1 79.4848 1H74.1348V18H80.0098ZM79.2848 3.025C80.0181 3.025 80.6514 3.1 81.1848 3.25C81.7181 3.38333 82.1264 3.64167 82.4098 4.025C82.7098 4.39167 82.8598 4.925 82.8598 5.625C82.8598 6.25833 82.6764 6.76667 82.3098 7.15C81.9598 7.53333 81.4764 7.80833 80.8598 7.975C80.2598 8.14167 79.5931 8.23333 78.8598 8.25H76.5348V3.025H79.2848ZM80.1598 10.2C81.2431 10.2 82.1098 10.4417 82.7598 10.925C83.4264 11.4083 83.7598 12.1667 83.7598 13.2C83.7598 13.8667 83.5931 14.4083 83.2598 14.825C82.9264 15.2417 82.4681 15.55 81.8848 15.75C81.3014 15.9333 80.6431 16.025 79.9098 16.025H76.5348V10.2H80.1598ZM100.498 18L100.173 16.125H92.0982V10.275H98.1982L97.8732 8.425H92.0982V2.85H99.5982L99.2732 1H89.6982V18H100.498Z" fill="white"/>
</svg>
