<svg width="573" height="224" viewBox="0 0 573 224" fill="none" xmlns="http://www.w3.org/2000/svg">
<path d="M1 1L85 85H1V1Z" fill="#171717" stroke="#171717" stroke-width="0.16" stroke-miterlimit="10"/>
<path d="M169 1V85H85L169 1Z" fill="#171717" stroke="#171717" stroke-width="0.16" stroke-miterlimit="10"/>
<path d="M169 85H1L169 168.844V85ZM1 85L169 168.844H1V85Z" fill="#171717"/>
<path d="M1 85H169V168.844M1 85L169 168.844M1 85V168.844H169" stroke="#171717" stroke-width="0.16" stroke-miterlimit="10"/>
<path d="M370.604 1H202.604L286.604 85L370.604 1ZM202.604 1L286.604 85H202.604V1Z" fill="#171717"/>
<path d="M202.604 1H370.604L286.604 85M202.604 1L286.604 85M202.604 1V85H286.604" stroke="#171717" stroke-width="0.16" stroke-miterlimit="10"/>
<path d="M286.604 85H202.604L370.604 168.844L286.604 85ZM202.604 85L370.604 168.844H202.604V85Z" fill="#171717"/>
<path d="M202.604 85H286.604L370.604 168.844M202.604 85L370.604 168.844M202.604 85V168.844H370.604" stroke="#171717" stroke-width="0.16" stroke-miterlimit="10"/>
<path d="M404.203 85H488.203L404.203 168.844V85Z" fill="#171717" stroke="#171717" stroke-width="0.16" stroke-miterlimit="10"/>
<path d="M488.203 85H572.203V168.844L488.203 85Z" fill="#171717" stroke="#171717" stroke-width="0.16" stroke-miterlimit="10"/>
<path d="M572.203 1H404.203L572.203 85V1ZM404.203 1L572.203 85H404.203V1Z" fill="#171717"/>
<path d="M404.203 1H572.203V85M404.203 1L572.203 85M404.203 1V85H572.203" stroke="#171717" stroke-width="0.16" stroke-miterlimit="10"/>
<path d="M1 168.844V1L85 85L169 1V168.844H1Z" stroke="#171717" stroke-width="0.16" stroke-miterlimit="10" stroke-linecap="round" stroke-linejoin="round"/>
<path d="M202.604 168.844V1H370.604L286.604 85L370.604 168.844H202.604Z" stroke="#171717" stroke-width="0.16" stroke-miterlimit="10" stroke-linecap="round" stroke-linejoin="round"/>
<path d="M404.203 168.844V1H572.203V168.844L488.203 85L404.203 168.844Z" stroke="#171717" stroke-width="0.16" stroke-miterlimit="10" stroke-linecap="round" stroke-linejoin="round"/>
<path d="M1.30273 223.243V197.43H3.4694L13.0944 209.326L22.6986 197.43H24.8861V223.243H22.7611V200.451L13.0944 212.472L3.36523 200.451V223.243H1.30273Z" fill="#171717"/>
<path d="M42.3464 212.534C42.3464 215.315 43.1172 217.519 44.6589 219.138C46.2109 220.763 48.2891 221.576 50.888 221.576C53.4818 221.576 55.5547 220.763 57.0964 219.138C58.6484 217.519 59.4297 215.315 59.4297 212.534V197.43H61.5755V212.43C61.5755 215.904 60.6068 218.664 58.6797 220.701C56.7474 222.732 54.1484 223.743 50.888 223.743C47.6224 223.743 45.0286 222.732 43.1172 220.701C41.2005 218.675 40.2422 215.92 40.2422 212.43V197.43H42.3464V212.534Z" fill="#171717"/>
<path d="M89.0807 201.097C88.0078 200.378 86.987 199.842 86.0182 199.493C85.0599 199.149 84.1068 198.972 83.1641 198.972C81.5911 198.972 80.3047 199.435 79.3099 200.347C78.3203 201.263 77.8307 202.42 77.8307 203.805C77.8307 204.946 78.1484 205.878 78.7891 206.597C79.4245 207.305 80.7995 208.107 82.9141 208.993C83.0339 209.05 83.2266 209.128 83.4766 209.222C85.862 210.196 87.4557 211.128 88.2474 212.013C88.7995 212.628 89.2266 213.321 89.5182 214.097C89.8047 214.862 89.9557 215.685 89.9557 216.555C89.9557 218.612 89.237 220.31 87.8099 221.638C86.3776 222.961 84.5495 223.618 82.3307 223.618C81.2057 223.618 80.0911 223.425 78.9974 223.055C77.8984 222.67 76.7839 222.092 75.6641 221.326V218.805C76.8828 219.763 78.0391 220.477 79.1224 220.93C80.2005 221.388 81.2578 221.618 82.2891 221.618C83.9661 221.618 85.2995 221.159 86.2891 220.243C87.2734 219.315 87.7682 218.055 87.7682 216.472C87.7682 215.31 87.4297 214.357 86.7682 213.618C86.1016 212.873 84.5703 211.993 82.1849 210.993C79.7109 209.967 78.013 208.94 77.1016 207.909C76.1953 206.873 75.7474 205.545 75.7474 203.93C75.7474 201.92 76.4349 200.279 77.8099 199.013C79.1953 197.737 81.0026 197.097 83.2266 197.097C84.237 197.097 85.2266 197.237 86.1849 197.513C87.138 197.795 88.1068 198.217 89.0807 198.784V201.097Z" fill="#171717"/>
<path d="M110.598 223.243V199.284H100.973V197.43H122.431V199.284H112.806V223.243H110.598Z" fill="#171717"/>
<path d="M146.805 210.993V221.513H151.096C153.732 221.513 155.659 221.107 156.867 220.284C158.086 219.456 158.701 218.149 158.701 216.368C158.701 214.748 158.065 213.446 156.805 212.472C155.539 211.487 153.852 210.993 151.742 210.993H146.805ZM146.805 199.097V209.263H151.013C152.69 209.263 154.044 208.795 155.076 207.847C156.102 206.904 156.617 205.659 156.617 204.118C156.617 202.565 156.081 201.342 155.013 200.451C153.956 199.55 152.508 199.097 150.68 199.097H146.805ZM144.742 223.243V197.43H150.846C153.258 197.43 155.18 198.024 156.596 199.201C158.023 200.383 158.742 201.977 158.742 203.972C158.742 205.305 158.424 206.456 157.805 207.409C157.19 208.368 156.273 209.144 155.055 209.722C157.008 210.211 158.492 211.039 159.492 212.201C160.487 213.357 160.992 214.821 160.992 216.597C160.992 217.711 160.727 218.727 160.201 219.638C159.669 220.555 158.919 221.331 157.951 221.951C157.211 222.425 156.352 222.758 155.367 222.951C154.393 223.149 152.883 223.243 150.846 223.243H144.742Z" fill="#171717"/>
<path d="M174.896 223.243V197.43H188.896V199.097H176.959V209.326H188.501V210.993H176.959V221.513H189.188V223.243H174.896Z" fill="#171717"/>
<path d="M215.279 212.493H225.195L220.258 200.784L215.279 212.493ZM208.57 223.243L219.82 197.201H220.654L231.924 223.243H229.737L225.924 214.263H214.57L210.758 223.243H208.57Z" fill="#171717"/>
<path d="M245.543 199.159V209.076H247.147C249.1 209.076 250.465 209.029 251.23 208.93C251.991 208.836 252.632 208.67 253.147 208.43C254.1 208.019 254.819 207.43 255.293 206.68C255.762 205.935 256.001 205.003 256.001 203.888C256.001 202.394 255.465 201.232 254.397 200.409C253.34 199.581 251.829 199.159 249.876 199.159H245.543ZM243.48 197.43H249.751C252.496 197.43 254.605 197.987 256.064 199.097C257.533 200.211 258.272 201.81 258.272 203.888C258.272 205.472 257.861 206.795 257.043 207.847C256.22 208.888 254.986 209.675 253.335 210.201C253.803 210.467 254.23 210.779 254.605 211.138C254.991 211.503 255.34 211.904 255.647 212.347L262.751 223.243H260.397L256.293 216.888C255.486 215.654 254.783 214.633 254.189 213.826C253.59 213.024 253.121 212.446 252.793 212.097C252.335 211.644 251.725 211.321 250.98 211.138C250.23 210.946 249.121 210.847 247.668 210.847H245.543V223.243H243.48V197.43Z" fill="#171717"/>
<path d="M295.62 221.326C294.089 222.118 292.574 222.717 291.079 223.118C289.579 223.503 288.084 223.701 286.6 223.701C285.11 223.701 283.699 223.503 282.37 223.118C281.037 222.732 279.792 222.154 278.641 221.388C276.735 220.17 275.261 218.576 274.225 216.618C273.183 214.664 272.662 212.534 272.662 210.243C272.662 208.508 273.001 206.826 273.683 205.201C274.376 203.565 275.355 202.133 276.62 200.909C277.949 199.623 279.459 198.649 281.141 197.993C282.834 197.331 284.652 196.993 286.6 196.993C288.011 196.993 289.475 197.196 290.975 197.597C292.469 197.987 294.021 198.592 295.62 199.409V201.534C293.881 200.623 292.271 199.94 290.787 199.493C289.298 199.05 287.881 198.826 286.537 198.826C285.329 198.826 284.173 198.998 283.079 199.326C281.98 199.649 280.943 200.123 279.975 200.743C278.376 201.826 277.131 203.206 276.245 204.868C275.37 206.534 274.933 208.357 274.933 210.326C274.933 211.842 275.214 213.315 275.787 214.743C276.355 216.159 277.162 217.404 278.204 218.472C279.256 219.555 280.501 220.394 281.933 220.972C283.36 221.555 284.896 221.847 286.537 221.847C287.865 221.847 289.277 221.628 290.766 221.18C292.251 220.737 293.87 220.05 295.62 219.118V221.326Z" fill="#171717"/>
<path d="M309.342 223.243V197.43H311.404V209.368H328.571V197.43H330.654V223.243H328.571V211.201H311.404V223.243H309.342Z" fill="#171717"/>
<path d="M346.385 223.243V197.43H348.614V223.243H346.385Z" fill="#171717"/>
<path d="M371.178 223.243V199.284H361.553V197.43H383.011V199.284H373.386V223.243H371.178Z" fill="#171717"/>
<path d="M395.799 223.243V197.43H409.799V199.097H397.861V209.326H409.403V210.993H397.861V221.513H410.09V223.243H395.799Z" fill="#171717"/>
<path d="M445.41 221.326C443.878 222.118 442.363 222.717 440.868 223.118C439.368 223.503 437.873 223.701 436.389 223.701C434.899 223.701 433.488 223.503 432.16 223.118C430.826 222.732 429.581 222.154 428.43 221.388C426.524 220.17 425.05 218.576 424.014 216.618C422.972 214.664 422.451 212.534 422.451 210.243C422.451 208.508 422.79 206.826 423.472 205.201C424.165 203.565 425.144 202.133 426.41 200.909C427.738 199.623 429.248 198.649 430.93 197.993C432.623 197.331 434.441 196.993 436.389 196.993C437.8 196.993 439.264 197.196 440.764 197.597C442.258 197.987 443.811 198.592 445.41 199.409V201.534C443.67 200.623 442.061 199.94 440.576 199.493C439.087 199.05 437.67 198.826 436.326 198.826C435.118 198.826 433.962 198.998 432.868 199.326C431.769 199.649 430.732 200.123 429.764 200.743C428.165 201.826 426.92 203.206 426.035 204.868C425.16 206.534 424.722 208.357 424.722 210.326C424.722 211.842 425.003 213.315 425.576 214.743C426.144 216.159 426.951 217.404 427.993 218.472C429.045 219.555 430.29 220.394 431.722 220.972C433.149 221.555 434.686 221.847 436.326 221.847C437.654 221.847 439.066 221.628 440.555 221.18C442.04 220.737 443.66 220.05 445.41 219.118V221.326Z" fill="#171717"/>
<path d="M465.984 223.243V199.284H456.359V197.43H477.818V199.284H468.193V223.243H465.984Z" fill="#171717"/>
<path d="M492.503 212.534C492.503 215.315 493.273 217.519 494.815 219.138C496.367 220.763 498.445 221.576 501.044 221.576C503.638 221.576 505.711 220.763 507.253 219.138C508.805 217.519 509.586 215.315 509.586 212.534V197.43H511.732V212.43C511.732 215.904 510.763 218.664 508.836 220.701C506.904 222.732 504.305 223.743 501.044 223.743C497.779 223.743 495.185 222.732 493.273 220.701C491.357 218.675 490.398 215.92 490.398 212.43V197.43H492.503V212.534Z" fill="#171717"/>
<path d="M529.135 199.159V209.076H530.739C532.692 209.076 534.057 209.029 534.822 208.93C535.583 208.836 536.223 208.67 536.739 208.43C537.692 208.019 538.411 207.43 538.885 206.68C539.354 205.935 539.593 205.003 539.593 203.888C539.593 202.394 539.057 201.232 537.989 200.409C536.932 199.581 535.421 199.159 533.468 199.159H529.135ZM527.072 197.43H533.343C536.088 197.43 538.197 197.987 539.656 199.097C541.124 200.211 541.864 201.81 541.864 203.888C541.864 205.472 541.452 206.795 540.635 207.847C539.812 208.888 538.577 209.675 536.926 210.201C537.395 210.467 537.822 210.779 538.197 211.138C538.583 211.503 538.932 211.904 539.239 212.347L546.343 223.243H543.989L539.885 216.888C539.077 215.654 538.374 214.633 537.781 213.826C537.182 213.024 536.713 212.446 536.385 212.097C535.926 211.644 535.317 211.321 534.572 211.138C533.822 210.946 532.713 210.847 531.26 210.847H529.135V223.243H527.072V197.43Z" fill="#171717"/>
<path d="M557.754 223.243V197.43H571.754V199.097H559.816V209.326H571.358V210.993H559.816V221.513H572.046V223.243H557.754Z" fill="#171717"/>
<path d="M1 1L85 85H1V1Z" fill="#171717" stroke="#171717" stroke-width="0.16" stroke-miterlimit="10"/>
<path d="M169 1V85H85L169 1Z" fill="#171717" stroke="#171717" stroke-width="0.16" stroke-miterlimit="10"/>
<path d="M169 85H1L169 168.844V85ZM1 85L169 168.844H1V85Z" fill="#171717"/>
<path d="M1 85H169V168.844M1 85L169 168.844M1 85V168.844H169" stroke="#171717" stroke-width="0.16" stroke-miterlimit="10"/>
<path d="M370.604 1H202.604L286.604 85L370.604 1ZM202.604 1L286.604 85H202.604V1Z" fill="#171717"/>
<path d="M202.604 1H370.604L286.604 85M202.604 1L286.604 85M202.604 1V85H286.604" stroke="#171717" stroke-width="0.16" stroke-miterlimit="10"/>
<path d="M286.604 85H202.604L370.604 168.844L286.604 85ZM202.604 85L370.604 168.844H202.604V85Z" fill="#171717"/>
<path d="M202.604 85H286.604L370.604 168.844M202.604 85L370.604 168.844M202.604 85V168.844H370.604" stroke="#171717" stroke-width="0.16" stroke-miterlimit="10"/>
<path d="M404.203 85H488.203L404.203 168.844V85Z" fill="#171717" stroke="#171717" stroke-width="0.16" stroke-miterlimit="10"/>
<path d="M488.203 85H572.203V168.844L488.203 85Z" fill="#171717" stroke="#171717" stroke-width="0.16" stroke-miterlimit="10"/>
<path d="M572.203 1H404.203L572.203 85V1ZM404.203 1L572.203 85H404.203V1Z" fill="#171717"/>
<path d="M404.203 1H572.203V85M404.203 1L572.203 85M404.203 1V85H572.203" stroke="#171717" stroke-width="0.16" stroke-miterlimit="10"/>
</svg>
